<svg width="229" height="52" viewBox="0 0 229 52" fill="none" xmlns="http://www.w3.org/2000/svg">
<path d="M23.62 36.66C22.5 37.58 21.12 38.32 19.48 38.88C17.88 39.4 16.26 39.66 14.62 39.66C11.82 39.66 9.36 39.12 7.24 38.04C5.12 36.92 3.46 35.38 2.26 33.42C1.1 31.42 0.52 29.04 0.52 26.28C0.52 23.52 1.14 21.14 2.38 19.14C3.66 17.14 5.32 15.62 7.36 14.58C9.44 13.5 11.64 12.96 13.96 12.96C16.08 12.96 17.96 13.26 19.6 13.86C21.24 14.42 22.66 15.2 23.86 16.2L20.5 20.58C19.86 20.06 19.02 19.58 17.98 19.14C16.98 18.66 15.84 18.42 14.56 18.42C13.2 18.42 11.96 18.76 10.84 19.44C9.76 20.12 8.88 21.06 8.2 22.26C7.56 23.42 7.24 24.76 7.24 26.28C7.24 27.72 7.58 29.04 8.26 30.24C8.94 31.44 9.88 32.4 11.08 33.12C12.28 33.8 13.66 34.14 15.22 34.14C16.22 34.14 17.14 34 17.98 33.72C18.86 33.4 19.62 32.98 20.26 32.46L23.62 36.66ZM30.5106 13.62H37.2306V39H30.5106V13.62ZM30.2106 4.56C30.2106 3.52 30.6106 2.66 31.4106 1.98C32.2506 1.3 33.1506 0.96 34.1106 0.96C35.0706 0.96 35.9306 1.3 36.6906 1.98C37.4906 2.66 37.8906 3.52 37.8906 4.56C37.8906 5.6 37.4906 6.46 36.6906 7.14C35.9306 7.78 35.0706 8.1 34.1106 8.1C33.1506 8.1 32.2506 7.76 31.4106 7.08C30.6106 6.4 30.2106 5.56 30.2106 4.56ZM52.5081 13.62L53.1081 19.08L52.8681 18.36C53.7481 16.6 55.0481 15.2 56.7681 14.16C58.5281 13.08 60.6081 12.54 63.0081 12.54C65.4081 12.54 67.3881 13.24 68.9481 14.64C70.5081 16.04 71.3081 17.88 71.3481 20.16V39H64.6281V22.56C64.5881 21.28 64.2281 20.26 63.5481 19.5C62.8681 18.7 61.7881 18.28 60.3081 18.24C58.9481 18.24 57.7281 18.66 56.6481 19.5C55.5681 20.3 54.7081 21.42 54.0681 22.86C53.4681 24.26 53.1681 25.88 53.1681 27.72V39H46.4481V13.62H52.5081ZM92.7283 39.66C89.7283 39.66 87.1683 39.08 85.0483 37.92C82.9283 36.76 81.3083 35.16 80.1883 33.12C79.0683 31.04 78.5083 28.7 78.5083 26.1C78.5083 23.54 79.1483 21.24 80.4283 19.2C81.7083 17.16 83.4283 15.54 85.5883 14.34C87.7883 13.1 90.2083 12.48 92.8483 12.48C96.3283 12.48 99.1883 13.5 101.428 15.54C103.708 17.54 105.228 20.38 105.988 24.06L85.5283 30.96L83.9683 27.18L99.9283 21.48L98.5483 22.26C98.1083 21.06 97.3883 20.02 96.3883 19.14C95.4283 18.26 94.0683 17.82 92.3083 17.82C90.9083 17.82 89.6683 18.16 88.5883 18.84C87.5083 19.48 86.6483 20.4 86.0083 21.6C85.4083 22.76 85.1083 24.14 85.1083 25.74C85.1083 27.38 85.4483 28.82 86.1283 30.06C86.8083 31.3 87.7283 32.26 88.8883 32.94C90.0483 33.58 91.3683 33.9 92.8483 33.9C93.8883 33.9 94.8883 33.72 95.8483 33.36C96.8083 33 97.7083 32.52 98.5483 31.92L101.608 36.9C100.288 37.74 98.8283 38.42 97.2283 38.94C95.6683 39.42 94.1683 39.66 92.7283 39.66ZM118.66 13.62L119.26 18.78L119.02 18.36C119.98 16.52 121.28 15.08 122.92 14.04C124.6 13 126.54 12.48 128.74 12.48C130.14 12.48 131.38 12.7 132.46 13.14C133.54 13.58 134.44 14.2 135.16 15C135.92 15.8 136.42 16.8 136.66 18L136.3 18.12C137.34 16.4 138.68 15.04 140.32 14.04C141.96 13 143.7 12.48 145.54 12.48C148.02 12.48 150 13.2 151.48 14.64C152.96 16.04 153.72 17.86 153.76 20.1V39H147.1V22.74C147.06 21.5 146.8 20.48 146.32 19.68C145.84 18.84 144.94 18.38 143.62 18.3C142.18 18.3 140.94 18.76 139.9 19.68C138.86 20.56 138.04 21.72 137.44 23.16C136.88 24.56 136.6 26.06 136.6 27.66V39H129.82V22.74C129.78 21.5 129.5 20.48 128.98 19.68C128.46 18.84 127.54 18.38 126.22 18.3C124.82 18.3 123.6 18.76 122.56 19.68C121.52 20.56 120.72 21.72 120.16 23.16C119.6 24.56 119.32 26.04 119.32 27.6V39H112.6V13.62H118.66ZM173.671 39.66C171.271 39.66 169.091 39.16 167.131 38.16C165.211 37.16 163.691 35.68 162.571 33.72C161.451 31.72 160.891 29.26 160.891 26.34C160.891 23.46 161.471 21 162.631 18.96C163.831 16.88 165.391 15.28 167.311 14.16C169.271 13.04 171.391 12.48 173.671 12.48C176.111 12.48 178.071 12.96 179.551 13.92C181.071 14.88 182.251 16.02 183.091 17.34L182.731 18.3L183.391 13.62H189.571V39H182.851V32.82L183.511 34.44C183.351 34.68 183.031 35.08 182.551 35.64C182.071 36.16 181.411 36.74 180.571 37.38C179.731 38.02 178.731 38.56 177.571 39C176.451 39.44 175.151 39.66 173.671 39.66ZM175.531 34.14C176.731 34.14 177.811 33.92 178.771 33.48C179.771 33.04 180.611 32.42 181.291 31.62C182.011 30.82 182.531 29.86 182.851 28.74V23.22C182.531 22.18 182.011 21.28 181.291 20.52C180.571 19.72 179.691 19.1 178.651 18.66C177.651 18.22 176.531 18 175.291 18C173.931 18 172.671 18.34 171.511 19.02C170.351 19.7 169.411 20.64 168.691 21.84C168.011 23.04 167.671 24.42 167.671 25.98C167.671 27.5 168.031 28.88 168.751 30.12C169.471 31.36 170.431 32.34 171.631 33.06C172.831 33.78 174.131 34.14 175.531 34.14ZM214.27 39.66C212.51 39.66 210.81 39.28 209.17 38.52C207.53 37.76 206.21 36.72 205.21 35.4L205.57 33.36V51.18H198.85V13.14H204.67L205.57 19.02L204.97 17.22C206.21 15.86 207.71 14.74 209.47 13.86C211.27 12.94 213.29 12.48 215.53 12.48C217.93 12.48 220.07 13.04 221.95 14.16C223.83 15.28 225.31 16.88 226.39 18.96C227.51 21 228.07 23.42 228.07 26.22C228.07 29.02 227.47 31.42 226.27 33.42C225.07 35.42 223.43 36.96 221.35 38.04C219.27 39.12 216.91 39.66 214.27 39.66ZM212.95 34.32C214.43 34.32 215.79 33.98 217.03 33.3C218.31 32.62 219.33 31.68 220.09 30.48C220.85 29.24 221.23 27.86 221.23 26.34C221.23 24.74 220.87 23.34 220.15 22.14C219.47 20.9 218.53 19.94 217.33 19.26C216.17 18.54 214.87 18.18 213.43 18.18C212.11 18.18 210.93 18.4 209.89 18.84C208.85 19.28 207.97 19.92 207.25 20.76C206.53 21.56 205.97 22.52 205.57 23.64V28.74C205.85 29.82 206.33 30.78 207.01 31.62C207.69 32.46 208.55 33.12 209.59 33.6C210.63 34.08 211.75 34.32 212.95 34.32Z" fill="white"/>
</svg>
